<svg xmlns="http://www.w3.org/2000/svg" width="38.11" height="38.128" viewBox="0 0 38.11 38.128"><g transform="translate(0 0)"><g transform="translate(0 0)"><path d="M600.575,67.984a10.267,10.267,0,1,1,12.095-.011c.118.052.218.1.321.141a18.912,18.912,0,0,1,12.451,15.052,19.287,19.287,0,0,1,.221,2.736,1.456,1.456,0,0,1-1.6,1.633q-6.185.005-12.37,0l-22.312,0c-1.32,0-1.84-.52-1.826-1.825A19.088,19.088,0,0,1,600.115,68.17C600.257,68.119,600.4,68.057,600.575,67.984Zm-9.981,16.595h32.033a16.082,16.082,0,0,0-32.033,0Zm16.067-32.237a7.331,7.331,0,1,0,7.282,7.354A7.333,7.333,0,0,0,606.661,52.342Z" transform="translate(-587.556 -49.411)"/></g></g></svg>