<svg xmlns="http://www.w3.org/2000/svg" width="46.535" height="46.556" viewBox="0 0 46.535 46.556"><defs><style>.a{fill:#5b17aa;}</style></defs><g transform="translate(-218.596 -218.475)"><path class="a" d="M57.522,50.975l-15.3-15.3,15.3-15.3A4.641,4.641,0,1,0,50.959,13.8l-15.3,15.3-15.3-15.3a4.44,4.44,0,0,0-6.563,0,4.484,4.484,0,0,0,0,6.563l15.3,15.3-15.3,15.3a4.487,4.487,0,0,0,0,6.563,4.61,4.61,0,0,0,6.563,0l15.3-15.3,15.3,15.3a4.662,4.662,0,0,0,6.563,0A4.61,4.61,0,0,0,57.522,50.975Z" transform="translate(206.237 206.12)"/></g></svg>