<svg xmlns="http://www.w3.org/2000/svg" width="38.416" height="38.454" viewBox="0 0 38.416 38.454"><g transform="translate(-3625.34 -3118.127)"><path d="M3644.581,3118.127c2.58.046,5.16.071,7.739.144a12.575,12.575,0,0,1,6.355,1.649,9.558,9.558,0,0,1,4.614,6.767,34.26,34.26,0,0,1,.432,5.311c.058,3.814.036,7.63-.006,11.445a18.592,18.592,0,0,1-.752,5.938,9.651,9.651,0,0,1-7.751,6.733,31.043,31.043,0,0,1-5.31.432c-3.8.058-7.6.035-11.4-.006a18.714,18.714,0,0,1-5.939-.746,9.652,9.652,0,0,1-6.749-7.737,30.568,30.568,0,0,1-.435-5.31c-.059-3.814-.036-7.63.005-11.445a18.592,18.592,0,0,1,.753-5.938,9.652,9.652,0,0,1,7.751-6.731,35.974,35.974,0,0,1,5.31-.436c1.793-.07,3.59-.016,5.386-.016Zm15.775,18.939-.078,0c0-1.515.031-3.031-.009-4.545-.038-1.456-.094-2.916-.241-4.365a6.455,6.455,0,0,0-5.459-6.093,30.535,30.535,0,0,0-5.144-.4c-3.254-.059-6.51-.052-9.763,0a35.038,35.038,0,0,0-4.859.336,6.268,6.268,0,0,0-5.443,4.776,11.283,11.283,0,0,0-.412,2.733c-.083,3.477-.134,6.955-.122,10.433.008,2.213.058,4.433.251,6.636a6.444,6.444,0,0,0,5.551,6.145,31.713,31.713,0,0,0,5.107.37c3.211.054,6.425.04,9.637.005,1.47-.016,2.943-.1,4.406-.243a7.024,7.024,0,0,0,3.75-1.456,7.113,7.113,0,0,0,2.579-5.54C3660.249,3142.927,3660.278,3140,3660.356,3137.066Z"/><path d="M3654.41,3137.383a9.862,9.862,0,1,1-9.768-9.871A9.824,9.824,0,0,1,3654.41,3137.383Zm-9.866,6.389a6.4,6.4,0,1,0-6.394-6.4A6.43,6.43,0,0,0,3644.544,3143.772Z"/><path d="M3657.1,3127.113a2.311,2.311,0,0,1-2.3,2.331,2.344,2.344,0,0,1-2.321-2.334,2.31,2.31,0,0,1,2.3-2.292A2.264,2.264,0,0,1,3657.1,3127.113Z"/></g></svg>