<?xml version="1.0" encoding="utf-8"?>
<!-- Generator: Adobe Illustrator 25.0.0, SVG Export Plug-In . SVG Version: 6.00 Build 0)  -->
<svg version="1.1" id="Capa_1" xmlns="http://www.w3.org/2000/svg" xmlns:xlink="http://www.w3.org/1999/xlink" x="0px" y="0px"
	 viewBox="0 0 30 30" style="enable-background:new 0 0 30 30;" xml:space="preserve">
<g>
	<g id="_x33_4hbmL.tif_1_">
		<g>
			<path d="M15,2.7c1.6,0,3.3,0,4.9,0.1c1.4,0,2.8,0.3,4.1,1.1c1.6,1,2.6,2.5,3,4.3c0.2,1.1,0.3,2.3,0.3,3.4c0,2.4,0,4.9,0,7.3
				c0,1.3-0.1,2.6-0.5,3.8c-0.8,2.4-2.5,3.8-5,4.3c-1.1,0.2-2.3,0.3-3.4,0.3c-2.4,0-4.9,0-7.3,0c-1.3,0-2.6-0.1-3.8-0.5
				C4.9,26,3.5,24.3,3,21.8c-0.2-1.1-0.3-2.3-0.3-3.4c0-2.4,0-4.9,0-7.3c0-1.3,0.1-2.6,0.5-3.8C4,4.9,5.7,3.5,8.2,3
				c1.1-0.2,2.3-0.2,3.4-0.3C12.7,2.7,13.9,2.7,15,2.7C15,2.7,15,2.7,15,2.7z M25.1,14.8C25.1,14.8,25.1,14.8,25.1,14.8
				c0-1,0-1.9-0.1-2.9C25,11,25,10,24.9,9.1c-0.2-2.1-1.4-3.5-3.5-3.9C20.3,5,19.2,5,18.1,5c-2.1,0-4.2,0-6.2,0
				c-1,0-2.1,0.1-3.1,0.2C7,5.5,5.8,6.5,5.3,8.2C5.1,8.8,5,9.4,5,10c-0.1,2.2-0.1,4.4-0.1,6.7c0,1.4,0,2.8,0.2,4.2
				c0.2,2.1,1.5,3.6,3.6,3.9c1.1,0.2,2.2,0.2,3.3,0.2c2.1,0,4.1,0,6.2,0c0.9,0,1.9-0.1,2.8-0.2c0.9-0.1,1.7-0.4,2.4-0.9
				c1.1-0.9,1.6-2.2,1.6-3.5C25,18.6,25.1,16.7,25.1,14.8z"/>
			<path d="M21.3,15c0,3.5-2.8,6.3-6.3,6.3c-3.5,0-6.3-2.8-6.3-6.4c0-3.5,2.8-6.2,6.4-6.2C18.5,8.7,21.3,11.5,21.3,15z M15,19.1
				c2.2,0,4.1-1.8,4.1-4.1c0-2.2-1.8-4.1-4.1-4.1c-2.2,0-4.1,1.8-4.1,4.1C10.9,17.3,12.8,19.1,15,19.1z"/>
			<path d="M23,8.4c0,0.8-0.7,1.5-1.5,1.5c-0.8,0-1.5-0.7-1.5-1.5c0-0.8,0.7-1.5,1.5-1.5C22.4,7,23,7.6,23,8.4z"/>
		</g>
	</g>
</g>
</svg>
