<?xml version="1.0" encoding="utf-8"?>
<!-- Generator: Adobe Illustrator 25.0.0, SVG Export Plug-In . SVG Version: 6.00 Build 0)  -->
<svg version="1.1" id="Capa_1" xmlns="http://www.w3.org/2000/svg" xmlns:xlink="http://www.w3.org/1999/xlink" x="0px" y="0px"
	 viewBox="0 0 461 92" style="enable-background:new 0 0 461 92;" xml:space="preserve">
<g>
	<path d="M26.1,78.7c-4.2,0-7.8-1.5-10.8-4.4c-3-3-4.4-6.5-4.4-10.7V28.7c0-4.2,1.5-7.8,4.5-10.8c3-3,6.6-4.4,10.8-4.4
		c4.2,0,7.8,1.5,10.8,4.5c2.9,3,4.4,6.6,4.4,10.8V36h-10v-7.5c0-1.5-0.5-2.8-1.6-3.9c-1.1-1.1-2.4-1.6-3.9-1.6
		c-1.5,0-2.8,0.5-3.9,1.6c-1.1,1.1-1.6,2.4-1.6,3.9v34.9c0,1.5,0.5,2.8,1.6,3.9c1.1,1.1,2.4,1.6,3.9,1.6c1.5,0,2.8-0.5,3.9-1.6
		c1.1-1.1,1.6-2.4,1.6-3.9v-8.8h10v8.9c0,4.2-1.5,7.8-4.5,10.8C33.9,77.2,30.3,78.7,26.1,78.7z"/>
	<path d="M75.4,77.8H49.2V14.2h9.6v54.1h16.6V77.8z"/>
	<path d="M97.2,13.3c4.2,0,7.8,1.5,10.8,4.5c3,3,4.4,6.6,4.4,10.8v34.8c0,4.2-1.5,7.8-4.5,10.8c-3,3-6.6,4.4-10.8,4.4
		c-4.2,0-7.8-1.5-10.8-4.5c-2.9-3-4.4-6.6-4.4-10.8V28.6c0-4.2,1.5-7.8,4.5-10.8C89.4,14.8,93,13.3,97.2,13.3z M102.4,28.4
		c0-1.5-0.5-2.8-1.6-3.9c-1.1-1.1-2.4-1.6-3.9-1.6c-1.5,0-2.8,0.5-3.9,1.6c-1.1,1.1-1.6,2.4-1.6,3.9v34.9c0,1.5,0.5,2.8,1.6,3.9
		c1.1,1.1,2.4,1.6,3.9,1.6c1.5,0,2.8-0.5,3.9-1.6c1.1-1.1,1.6-2.4,1.6-3.9V28.4z"/>
	<path d="M129.2,23.8H119v-9.7h30v9.7h-10.2v54h-9.6V23.8z"/>
	<path d="M166.3,50.9v27h-9.6V14.2h9.6v27h11.6v-27h9.6v63.7h-9.6v-27H166.3z"/>
	<path d="M196.1,77.8V14.1h27.3v9.7h-17.7v17.4h13v9.7h-13v17.4h17.7v9.7H196.1z"/>
	<path d="M261.8,62c0.1,4.4-1.1,8.2-3.5,11.4c-1.6,2.1-3.8,3.6-6.6,4.5c-1.5,0.5-3.3,0.7-5.3,0.7c-3.8,0-6.9-0.9-9.4-2.8
		c-2.1-1.5-3.7-3.6-4.9-6.2c-1.2-2.6-1.9-5.6-2.1-9l9.1-0.7c0.4,3.7,1.4,6.4,2.9,8.1c1.2,1.3,2.5,1.9,4,1.8c2.1-0.1,3.8-1.1,5-3.1
		c0.6-1,1-2.4,1-4.2c0-2.6-1.2-5.3-3.6-7.9c-1.9-1.8-4.7-4.5-8.5-8.1c-3.2-3.1-5.4-5.8-6.8-8.3c-1.4-2.7-2.1-5.7-2.1-9
		c0-5.8,1.9-10.2,5.8-13.2c2.4-1.8,5.4-2.7,8.9-2.7c3.4,0,6.4,0.8,8.8,2.3c1.9,1.2,3.4,2.8,4.6,5c1.2,2.1,1.9,4.6,2.1,7.4l-9.2,1.7
		c-0.3-2.6-1-4.6-2.2-6.1c-0.9-1-2.2-1.6-3.8-1.6c-1.8,0-3.1,0.8-4,2.3c-0.7,1.3-1.1,2.8-1.1,4.7c0,2.9,1.3,5.9,3.8,8.9
		c0.9,1.2,2.4,2.5,4.3,4.1c2.2,1.9,3.7,3.2,4.4,3.9c2.4,2.4,4.2,4.7,5.5,7c0.6,1.1,1.1,2.1,1.5,3C261.3,58.2,261.8,60.2,261.8,62z"
		/>
	<path d="M300.2,62c0.1,4.4-1.1,8.2-3.5,11.4c-1.6,2.1-3.8,3.6-6.6,4.5c-1.5,0.5-3.3,0.7-5.3,0.7c-3.8,0-6.9-0.9-9.4-2.8
		c-2.1-1.5-3.7-3.6-4.9-6.2c-1.2-2.6-1.9-5.6-2.1-9l9.1-0.7c0.4,3.7,1.4,6.4,2.9,8.1c1.2,1.3,2.5,1.9,4,1.8c2.1-0.1,3.8-1.1,5-3.1
		c0.6-1,1-2.4,1-4.2c0-2.6-1.2-5.3-3.6-7.9c-1.9-1.8-4.7-4.5-8.5-8.1c-3.2-3.1-5.4-5.8-6.8-8.3c-1.4-2.7-2.1-5.7-2.1-9
		c0-5.8,1.9-10.2,5.8-13.2c2.4-1.8,5.4-2.7,8.9-2.7c3.4,0,6.4,0.8,8.8,2.3c1.9,1.2,3.4,2.8,4.6,5c1.2,2.1,1.9,4.6,2.1,7.4l-9.2,1.7
		c-0.3-2.6-1-4.6-2.2-6.1c-0.9-1-2.2-1.6-3.8-1.6c-1.8,0-3.1,0.8-4,2.3c-0.7,1.3-1.1,2.8-1.1,4.7c0,2.9,1.3,5.9,3.8,8.9
		c0.9,1.2,2.4,2.5,4.3,4.1c2.2,1.9,3.7,3.2,4.4,3.9c2.4,2.4,4.2,4.7,5.5,7c0.6,1.1,1.1,2.1,1.5,3C299.7,58.2,300.2,60.2,300.2,62z"
		/>
	<path d="M317,23.8h-10.2v-9.7h30v9.7h-10.2v54H317V23.8z"/>
	<path d="M358.6,13.3c4.2,0,7.8,1.5,10.8,4.5c3,3,4.4,6.6,4.4,10.8v34.8c0,4.2-1.5,7.8-4.5,10.8c-3,3-6.6,4.4-10.8,4.4
		c-4.2,0-7.8-1.5-10.8-4.5c-2.9-3-4.4-6.6-4.4-10.8V28.6c0-4.2,1.5-7.8,4.5-10.8C350.8,14.8,354.4,13.3,358.6,13.3z M363.8,28.4
		c0-1.5-0.5-2.8-1.6-3.9c-1.1-1.1-2.4-1.6-3.9-1.6s-2.8,0.5-3.9,1.6c-1.1,1.1-1.6,2.4-1.6,3.9v34.9c0,1.5,0.5,2.8,1.6,3.9
		c1.1,1.1,2.4,1.6,3.9,1.6s2.8-0.5,3.9-1.6c1.1-1.1,1.6-2.4,1.6-3.9V28.4z"/>
	<path d="M397.5,14.2c5.4,0,9.3,1.5,11.8,4.4c2.2,2.6,3.3,6.2,3.3,10.8v9.2c0,4.5-1.7,8.3-5.1,11.4l7.1,27.8h-10.4l-5.8-24
		c-0.3,0-0.6,0-0.9,0h-5.5v24h-9.6V14.2H397.5z M403.2,29.5c0-3.7-1.8-5.5-5.5-5.5h-5.8v20.4h5.8c1.5,0,2.8-0.5,3.9-1.6
		c1.1-1.1,1.6-2.4,1.6-3.9V29.5z"/>
	<path d="M422.8,77.8V14.1h27.3v9.7h-17.7v17.4h13v9.7h-13v17.4h17.7v9.7H422.8z"/>
</g>
</svg>
